<svg width="512" height="512" viewBox="0 0 512 512" fill="none" xmlns="http://www.w3.org/2000/svg">
<g clip-path="url(#clip0)">
<path d="M378.667 304H208C199.168 304 192 296.832 192 288C192 279.168 199.168 272 208 272H378.667C387.499 272 394.667 279.168 394.667 288C394.667 296.832 387.499 304 378.667 304Z" fill="black"/>
<path d="M352 341.333C347.904 341.333 343.808 339.776 340.693 336.64C334.443 330.389 334.443 320.256 340.693 314.005L366.72 287.979L340.693 261.952C334.443 255.701 334.443 245.568 340.693 239.317C346.944 233.067 357.077 233.067 363.328 239.317L400.661 276.651C406.912 282.901 406.912 293.035 400.661 299.285L363.328 336.619C360.192 339.776 356.096 341.333 352 341.333V341.333Z" fill="black"/>
<path d="M304 405.333H48C21.5467 405.333 0 383.808 0 357.333V154.667C0 128.192 21.5467 106.667 48 106.667H272C298.453 106.667 320 128.192 320 154.667V197.333C320 206.165 312.832 213.333 304 213.333C295.168 213.333 288 206.165 288 197.333V154.667C288 145.835 280.811 138.667 272 138.667H48C39.1893 138.667 32 145.835 32 154.667V357.333C32 366.165 39.1893 373.333 48 373.333H304C312.832 373.333 320 380.501 320 389.333C320 398.165 312.832 405.333 304 405.333Z" fill="black"/>
<path d="M304 213.333H16C7.168 213.333 0 206.165 0 197.333C0 188.501 7.168 181.333 16 181.333H304C312.832 181.333 320 188.501 320 197.333C320 206.165 312.832 213.333 304 213.333Z" fill="black"/>
<path d="M464 405.333H378.667C369.835 405.333 362.667 398.165 362.667 389.333C362.667 380.501 369.835 373.333 378.667 373.333H464C472.811 373.333 480 366.165 480 357.333V154.667C480 145.835 472.811 138.667 464 138.667H378.667C369.835 138.667 362.667 131.499 362.667 122.667C362.667 113.835 369.835 106.667 378.667 106.667H464C490.453 106.667 512 128.192 512 154.667V357.333C512 383.808 490.453 405.333 464 405.333Z" fill="black"/>
<path d="M496 213.333H378.667C369.835 213.333 362.667 206.165 362.667 197.333C362.667 188.501 369.835 181.333 378.667 181.333H496C504.832 181.333 512 188.501 512 197.333C512 206.165 504.832 213.333 496 213.333Z" fill="black"/>
</g>
<defs>
<clipPath id="clip0">
<rect width="512" height="512" fill="white"/>
</clipPath>
</defs>
</svg>
