<svg width="512" height="512" viewBox="0 0 512 512" fill="none" xmlns="http://www.w3.org/2000/svg">
<path d="M366.667 314.281H196C187.168 314.281 180 306.089 180 295.995C180 285.901 187.168 277.709 196 277.709H366.667C375.499 277.709 382.667 285.901 382.667 295.995C382.667 306.089 375.499 314.281 366.667 314.281Z" fill="white"/>
<path d="M340 356.947C335.904 356.947 331.808 355.168 328.693 351.584C322.443 344.44 322.443 332.859 328.693 325.715L354.72 295.971L328.693 266.226C322.443 259.082 322.443 247.501 328.693 240.358C334.944 233.214 345.077 233.214 351.328 240.358L388.661 283.024C394.912 290.168 394.912 301.749 388.661 308.893L351.328 351.559C348.192 355.168 344.096 356.947 340 356.947Z" fill="white"/>
<path d="M349 238L399.81 296L349 354L349 238Z" fill="white"/>
<path d="M302.875 422.333H52.875C27.0417 422.333 6 398.31 6 368.762V142.571C6 113.024 27.0417 89 52.875 89H271.625C297.458 89 318.5 113.024 318.5 142.571V190.19C318.5 200.048 311.5 208.048 302.875 208.048C294.25 208.048 287.25 200.048 287.25 190.19V142.571C287.25 132.714 280.229 124.714 271.625 124.714H52.875C44.2708 124.714 37.25 132.714 37.25 142.571V368.762C37.25 378.619 44.2708 386.619 52.875 386.619H302.875C311.5 386.619 318.5 394.619 318.5 404.476C318.5 414.333 311.5 422.333 302.875 422.333Z" fill="white"/>
<path d="M302.875 208.048L21.625 208.048C13 208.048 6 200.048 6 190.19C6 180.333 13 172.333 21.625 172.333H302.875C311.5 172.333 318.5 180.333 318.5 190.19C318.5 200.048 311.5 208.048 302.875 208.048Z" fill="white"/>
<path d="M459.125 422.333H375.792C367.167 422.333 360.167 414.333 360.167 404.476C360.167 394.619 367.167 386.619 375.792 386.619H459.125C467.729 386.619 474.75 378.619 474.75 368.762V142.571C474.75 132.714 467.729 124.714 459.125 124.714H375.792C367.167 124.714 360.167 116.714 360.167 106.857C360.167 97 367.167 89 375.792 89H459.125C484.958 89 506 113.024 506 142.571V368.762C506 398.31 484.958 422.333 459.125 422.333Z" fill="white"/>
<path d="M490.375 208.048H375.792C367.167 208.048 360.167 200.048 360.167 190.19C360.167 180.333 367.167 172.333 375.792 172.333H490.375C499 172.333 506 180.333 506 190.19C506 200.048 499 208.048 490.375 208.048Z" fill="white"/>
<path d="M318.5 190.19V142.571C318.5 113.024 297.458 89 271.625 89H52.875C27.0417 89 6 113.024 6 142.571V368.762C6 398.31 27.0417 422.333 52.875 422.333H302.875C311.5 422.333 318.5 414.333 318.5 404.476C318.5 394.619 311.5 386.619 302.875 386.619H52.875C44.2708 386.619 37.25 378.619 37.25 368.762V142.571C37.25 132.714 44.2708 124.714 52.875 124.714H271.625C280.229 124.714 287.25 132.714 287.25 142.571V190.19C287.25 200.048 294.25 208.048 302.875 208.048M318.5 190.19C318.5 200.048 311.5 208.048 302.875 208.048M318.5 190.19C318.5 180.333 311.5 172.333 302.875 172.333H21.625C13 172.333 6 180.333 6 190.19C6 200.048 13 208.048 21.625 208.048L302.875 208.048M459.125 422.333H375.792C367.167 422.333 360.167 414.333 360.167 404.476C360.167 394.619 367.167 386.619 375.792 386.619H459.125C467.729 386.619 474.75 378.619 474.75 368.762V142.571C474.75 132.714 467.729 124.714 459.125 124.714H375.792C367.167 124.714 360.167 116.714 360.167 106.857C360.167 97 367.167 89 375.792 89H459.125C484.958 89 506 113.024 506 142.571V368.762C506 398.31 484.958 422.333 459.125 422.333ZM490.375 208.048H375.792C367.167 208.048 360.167 200.048 360.167 190.19C360.167 180.333 367.167 172.333 375.792 172.333H490.375C499 172.333 506 180.333 506 190.19C506 200.048 499 208.048 490.375 208.048Z" stroke="white" stroke-width="10"/>
</svg>
