<svg id="_x31__x2C_5" enable-background="new 0 0 24 24" height="512" viewBox="0 0 24 24" width="512" xmlns="http://www.w3.org/2000/svg"><g><path d="m17.75 14.25h-8c-.414 0-.75-.336-.75-.75s.336-.75.75-.75h8c.414 0 .75.336.75.75s-.336.75-.75.75z"/></g><g><path d="m16.5 16c-.192 0-.384-.073-.53-.22-.293-.293-.293-.768 0-1.061l1.22-1.22-1.22-1.22c-.293-.293-.293-.768 0-1.061s.768-.293 1.061 0l1.75 1.75c.293.293.293.768 0 1.061l-1.75 1.75c-.147.148-.339.221-.531.221z"/></g><g><path d="m14.25 19h-12c-1.24 0-2.25-1.009-2.25-2.25v-9.5c0-1.241 1.01-2.25 2.25-2.25h10.5c1.24 0 2.25 1.009 2.25 2.25v2c0 .414-.336.75-.75.75s-.75-.336-.75-.75v-2c0-.414-.337-.75-.75-.75h-10.5c-.413 0-.75.336-.75.75v9.5c0 .414.337.75.75.75h12c.414 0 .75.336.75.75s-.336.75-.75.75z"/></g><g><path d="m14.25 10h-13.5c-.414 0-.75-.336-.75-.75s.336-.75.75-.75h13.5c.414 0 .75.336.75.75s-.336.75-.75.75z"/></g><g><path d="m21.75 19h-4c-.414 0-.75-.336-.75-.75s.336-.75.75-.75h4c.413 0 .75-.336.75-.75v-9.5c0-.414-.337-.75-.75-.75h-4c-.414 0-.75-.336-.75-.75s.336-.75.75-.75h4c1.24 0 2.25 1.009 2.25 2.25v9.5c0 1.241-1.01 2.25-2.25 2.25z"/></g><g><path d="m23.25 10h-5.5c-.414 0-.75-.336-.75-.75s.336-.75.75-.75h5.5c.414 0 .75.336.75.75s-.336.75-.75.75z"/></g></svg>